Coordinates
version=1
nRows=10
nColumns=33
inDegrees=yes

Units are S.I. units (second, meters, Newtons, ...)
Angles are in degrees.

endheader
time	ground_thorax_rot_x	ground_thorax_rot_y	ground_thorax_rot_z	ground_thorax_tx	ground_thorax_ty	ground_thorax_tz	clav_prot_r	clav_elev_r	scapula_abduction_r	scapula_elevation_r	scapula_upward_rot_r	scapula_winging_r	shoulder_elv_r	plane_of_elev_r	axial_rot_r	elbow_flexion_r	pro_sup_r	wrist_flex_r	wrist_dev_r	clav_prot_l	clav_elev_l	scapula_abduction_l	scapula_elevation_l	scapula_upward_rot_l	scapula_winging_l	shoulder_elv_l	plane_of_elev_l	axial_rot_l	elbow_flexion_l	pro_sup_l	wrist_flex_l	wrist_dev_l
      5.41000000	     -1.53466519	      2.19105470	     10.41390293	     -0.09776829	      1.02987132	      0.01197934	      7.35716807	     -8.24601348	     13.74566146	     -2.08254608	      1.85215183	     -3.04853356	    -51.63547581	    -74.75170143	     93.46355473	    -64.30710634	   -137.15437324	     50.66379622	    -24.99999983	     11.40126228	     -0.58909873	    -15.60992383	    -22.92039554	    -38.84563008	     -0.65777573	     57.39860985	    -35.45832612	     -1.19169982	     63.77389690	     25.25974250	     -7.50855699	    -24.99999983
      5.42000000	     -1.56078356	      2.22037419	     10.40493633	     -0.09754665	      1.03001126	      0.01202112	      7.34695429	     -8.08617407	     13.85880052	     -2.05482958	      2.13703503	     -3.16318402	    -51.60836910	    -74.81728603	     93.63172764	    -65.04386570	   -137.39741035	     50.66866658	    -24.99999983	     11.48254508	     -0.60249021	    -15.72284735	    -22.83594159	    -38.70558234	     -0.57797061	     57.66552286	    -35.30333282	     -0.97359622	     64.63190870	     25.11110114	     -7.73582590	    -24.99999983
      5.43000000	     -1.08807858	      2.20334074	     10.57362182	     -0.09779750	      1.03033626	      0.01220316	      7.47345244	     -7.20100412	     14.27031716	     -1.47155921	      2.66607427	     -3.66104273	    -51.12505738	    -75.07979334	     94.92244392	    -65.82273287	   -139.96543536	     49.24188626	    -24.99999983	     11.71512531	     -1.66986660	    -16.47399859	    -22.25212091	    -39.72673542	     -0.28110476	     58.22497003	    -35.18272734	     -0.48208989	     65.55658705	     24.17190815	     -9.06856947	    -24.99999983
      5.44000000	     -1.20918699	      2.22989186	     10.56104384	     -0.09761377	      1.03047763	      0.01222773	      7.48839243	     -7.15354422	     14.43329297	     -1.54224209	      2.94183873	     -3.75455017	    -51.03680446	    -75.05310134	     95.02516362	    -66.63096015	   -140.04326534	     49.34910597	    -24.99999983	     11.78851615	     -1.52833621	    -16.52092618	    -22.24676001	    -39.42917434	     -0.22246055	     58.52515921	    -34.88289647	     -0.29443697	     66.30853124	     24.05811931	     -9.17736398	    -24.99999983
      5.45000000	     -1.28304435	      2.26289391	     10.56352628	     -0.09740158	      1.03060316	      0.01221775	      7.49890428	     -7.09531908	     14.60594787	     -1.61638685	      3.25079615	     -3.85750204	    -50.91464555	    -75.05684635	     95.11276812	    -67.42555225	   -140.18350429	     49.38833429	    -24.99999983	     11.85554019	     -1.42292470	    -16.55910228	    -22.20536163	    -39.12947162	     -0.16358676	     58.81519254	    -34.55525628	     -0.08521344	     67.10195958	     23.91417448	     -9.25626264	    -24.99999983
      5.46000000	     -1.35911358	      2.28323121	     10.56758936	     -0.09719527	      1.03073043	      0.01220429	      7.51434458	     -7.04126238	     14.81061922	     -1.71025061	      3.60021387	     -3.97410167	    -50.78322819	    -75.06271772	     95.22388387	    -68.26179262	   -140.38280276	     49.36032222	    -24.99999983	     11.93031790	     -1.35655352	    -16.61248136	    -22.11895964	    -38.81747730	     -0.08979462	     59.12284555	    -34.21408310	      0.13514852	     67.83662957	     23.74182515	     -9.28023575	    -24.99999983
      5.47000000	     -1.07727453	      1.97513490	     10.63777533	     -0.09740350	      1.03083354	      0.01202178	      7.87110070	     -6.56890602	     15.61468166	     -1.45998779	      4.03096222	     -4.46196473	    -49.92869919	    -75.38841260	     96.83349383	    -69.37982342	   -143.03504344	     46.58654200	    -24.99999983	     11.86101428	     -1.72724259	    -16.58924798	    -21.90399509	    -39.11824696	     -0.10616087	     59.45863425	    -33.73385331	      0.80227226	     68.57536894	     21.91783059	     -7.69263302	    -24.99999983
      5.48000000	     -1.17322298	      2.05056928	     10.68325027	     -0.09717023	      1.03090211	      0.01213204	      7.89437037	     -6.53878763	     15.81928025	     -1.56065022	      4.34703323	     -4.57002284	    -49.72011924	    -75.26269140	     96.87278544	    -70.26820353	   -143.10147992	     46.65048244	    -24.99999983	     11.95576732	     -1.66425833	    -16.65621633	    -21.77320590	    -38.72143178	     -0.01332943	     59.85070977	    -33.35456773	      0.92113206	     69.15257460	     21.80290563	     -7.63188382	    -24.99999983
      5.49000000	     -1.02195492	      1.81380422	     10.76769467	     -0.09719162	      1.03072757	      0.01199390	      8.27133864	     -6.14853164	     16.52971619	     -1.28098160	      4.51858137	     -4.98124068	    -47.96490755	    -75.30775454	     98.90821126	    -71.50942251	   -144.55873151	     43.68870879	    -24.99250081	     11.75484629	     -1.84123141	    -16.31617791	    -21.63905983	    -38.77072991	     -0.15764905	     60.56100004	    -32.89236740	      1.32802274	     69.93816445	     19.73312641	     -3.70289550	    -24.99999983
      5.50000000	     -0.97403588	      1.64455933	     10.72685107	     -0.09694035	      1.03088225	      0.01193356	      8.47175230	     -6.03052888	     16.95538076	     -1.24168846	      4.68309662	     -5.19263940	    -45.59706655	    -75.26091739	    100.92745599	    -72.46198854	   -144.74154269	     42.43278467	    -24.03860164	     11.55962510	     -2.00400729	    -15.94022647	    -21.41086886	    -38.59557156	     -0.27418257	     61.34847237	    -32.39457452	      1.65890352	     70.47770769	     19.06942697	     -0.82884750	    -24.99999983
